<?xml version="1.0" encoding="UTF-8" standalone="no" ?>
<!DOCTYPE svg PUBLIC "-//W3C//DTD SVG 1.1//EN" "http://www.w3.org/Graphics/SVG/1.1/DTD/svg11.dtd">
<svg xmlns="http://www.w3.org/2000/svg" xmlns:xlink="http://www.w3.org/1999/xlink" version="1.1" width="180.79476255788165" height="415.52259818072525" viewBox="249.32699334944397 83.0330579640671 180.79476255788165 415.52259818072525" xml:space="preserve">
<desc>Created with Fabric.js 5.3.0</desc>
<defs>
</defs>
<g transform="matrix(4.3072722818 0 0 4.3072722818 339.7243746284 332.0324696241)" id="GdoBqiR1tOkH6G8nZfzW8"  >
<path style="stroke: none; stroke-width: 1; stroke-dasharray: none; stroke-linecap: butt; stroke-dashoffset: 0; stroke-linejoin: miter; stroke-miterlimit: 4; fill: rgb(179,181,179); fill-rule: nonzero; opacity: 1;"  transform=" translate(0, 0)" d="M 20.44894 -14.76494 C 20.50521 12.27198 6.92145 24.97075 -4.40774 37.33322 C -4.986020000000001 37.840869999999995 -4.83945 37.728159999999995 -5.0703700000000005 37.89976 L -5.0703700000000005 37.89976 C -5.595400000000001 38.28994 -6.326740000000001 38.23792 -6.79126 37.77736 L -20.07717 24.604620000000004 L -20.07717 24.604620000000004 C -20.607129999999998 24.079170000000005 -20.62566 23.228360000000006 -20.119069999999997 22.680340000000005 C -19.812189999999998 22.348360000000003 -20.09153 22.652510000000003 -19.194889999999997 21.669060000000005 C -9.574669999999998 11.036790000000005 -2.847809999999999 4.482000000000006 -2.660489999999996 -14.764929999999996 C -2.490549999999996 -34.71652999999999 -2.510609999999996 -28.986329999999995 -2.6029099999999956 -35.99003 L -2.6029099999999956 -35.99003 C -2.610459999999996 -36.563199999999995 -2.3880399999999957 -37.1155 -1.9853599999999956 -37.52346 C -1.5826799999999956 -37.93142 -1.0333199999999956 -38.16102 -0.4600999999999955 -38.16093 L 18.524000000000004 -38.16093 L 18.524000000000004 -38.16093 C 19.589060000000003 -38.16093 20.454330000000006 -37.30108 20.461020000000005 -36.23604 C 20.505520000000004 -29.150710000000004 20.487580000000005 -34.85358 20.448930000000004 -14.764930000000003 z" stroke-linecap="round" />
</g>
<g transform="matrix(1.3295239826 0 0 0.9488271671 377.3309817273 118.0936461264)" id="5KMFYyA59nKmNWQHMlmNJ"  >
<path style="stroke: rgb(186,176,21); stroke-width: 0; stroke-dasharray: none; stroke-linecap: butt; stroke-dashoffset: 0; stroke-linejoin: miter; stroke-miterlimit: 4; fill: rgb(119,91,197); fill-rule: nonzero; opacity: 1;"  transform=" translate(0, 0)" d="M -36.9515 -27.05935 C -36.9515 -32.52263 -33.790800000000004 -36.951499999999996 -29.891870000000004 -36.951499999999996 L 29.891879999999993 -36.951499999999996 L 29.891879999999993 -36.951499999999996 C 33.79079999999999 -36.951499999999996 36.95150999999999 -32.52262999999999 36.95150999999999 -27.059349999999995 L 36.95150999999999 25.727420000000002 L 36.95150999999999 25.727420000000002 C 36.95150999999999 31.92631 33.36522999999999 36.9515 28.94133999999999 36.9515 L -30.034560000000013 36.9515 L -30.034560000000013 36.9515 C -33.85467000000001 36.9515 -36.951490000000014 32.61215 -36.951490000000014 27.259300000000003 z" stroke-linecap="round" />
</g>
</svg>